<svg xmlns="http://www.w3.org/2000/svg" viewBox="0 0 100 100">
  <defs>
    <linearGradient id="bg" x1="0%" y1="0%" x2="100%" y2="100%">
      <stop offset="0%" stop-color="#6366f1"/>
      <stop offset="100%" stop-color="#06b6d4"/>
    </linearGradient>
  </defs>
  <rect width="100" height="100" rx="22" fill="url(#bg)"/>
  <path d="M30 28h12c6 0 10 4 10 9s-4 9-10 9H38v14h-8V28zm8 6v6h3c2 0 3-1.5 3-3s-1-3-3-3h-3z" fill="white"/>
  <path d="M72 60.5c0 .8-.7 1.5-1.5 1.5h-21c-.8 0-1.5-.7-1.5-1.5v-21c0-.8.7-1.5 1.5-1.5H53l3.5-4h-7A5.5 5.5 0 0044 39.5v21A5.5 5.5 0 0049.5 66h21a5.5 5.5 0 005.5-5.5V49l-4 3.5V60.5z" fill="white" opacity="0.9"/>
  <path d="M72.7 34.3a1 1 0 00-1.4 0L58 47.6l-3.3-3.3a1 1 0 00-1.4 1.4l4 4a1 1 0 001.4 0L72.7 35.7a1 1 0 000-1.4z" fill="white" opacity="0.9"/>
</svg>
