<svg xmlns="http://www.w3.org/2000/svg" style="display:none">
  <!-- Hot/Fire icon -->
  <symbol id="icon-hot" viewBox="0 0 24 24" fill="none" stroke="currentColor" stroke-width="1.5" stroke-linecap="round" stroke-linejoin="round">
    <path d="M12 22c4.97 0 9-3.58 9-8 0-2.1-.8-4.05-2.18-5.58a.5.5 0 00-.82.13c-.5 1.1-1.4 2.05-2.5 2.45-.15.05-.3-.07-.28-.23.3-2.3-.5-5.27-3.22-7.77a.5.5 0 00-.8.13C10 5.7 9.5 8.3 8.2 9.8c-1.3 1.5-2.7 2.2-3.5 3C3.3 14.2 3 15.6 3 17c0 2.76 4.03 5 9 5z"/>
  </symbol>
  <!-- Brain/AI icon -->
  <symbol id="icon-brain" viewBox="0 0 24 24" fill="none" stroke="currentColor" stroke-width="1.5" stroke-linecap="round" stroke-linejoin="round">
    <path d="M12 2a4 4 0 00-4 4c0 .7.2 1.4.5 2A4 4 0 005 12c0 .9.3 1.7.8 2.4A4 4 0 004 18a4 4 0 004 4h1"/>
    <path d="M12 2a4 4 0 014 4c0 .7-.2 1.4-.5 2A4 4 0 0119 12c0 .9-.3 1.7-.8 2.4A4 4 0 0120 18a4 4 0 01-4 4h-1"/>
    <path d="M12 2v20M8 8h8M7 12h10M8 16h8"/>
  </symbol>
  <!-- Chart icon -->
  <symbol id="icon-chart" viewBox="0 0 24 24" fill="none" stroke="currentColor" stroke-width="1.5" stroke-linecap="round" stroke-linejoin="round">
    <path d="M3 3v18h18"/><path d="M7 16l4-4 4 4 5-6"/>
  </symbol>
  <!-- Timer icon -->
  <symbol id="icon-timer" viewBox="0 0 24 24" fill="none" stroke="currentColor" stroke-width="1.5" stroke-linecap="round" stroke-linejoin="round">
    <circle cx="12" cy="13" r="8"/><path d="M12 9v4l2.5 1.5M10 2h4M21 6l-2-2"/>
  </symbol>
  <!-- Practice icon -->
  <symbol id="icon-practice" viewBox="0 0 24 24" fill="none" stroke="currentColor" stroke-width="1.5" stroke-linecap="round" stroke-linejoin="round">
    <path d="M4 4h16a2 2 0 012 2v12a2 2 0 01-2 2H4a2 2 0 01-2-2V6a2 2 0 012-2z"/><path d="M8 10h8M8 14h5"/>
  </symbol>
  <!-- Wrong book icon -->
  <symbol id="icon-wrong" viewBox="0 0 24 24" fill="none" stroke="currentColor" stroke-width="1.5" stroke-linecap="round" stroke-linejoin="round">
    <path d="M4 19.5A2.5 2.5 0 016.5 17H20"/><path d="M6.5 2H20v20H6.5A2.5 2.5 0 014 19.5v-15A2.5 2.5 0 016.5 2z"/><path d="M9 9l6 6M15 9l-6 6"/>
  </symbol>
  <!-- Report icon -->
  <symbol id="icon-report" viewBox="0 0 24 24" fill="none" stroke="currentColor" stroke-width="1.5" stroke-linecap="round" stroke-linejoin="round">
    <path d="M14 2H6a2 2 0 00-2 2v16a2 2 0 002 2h12a2 2 0 002-2V8z"/><path d="M14 2v6h6"/><path d="M8 13h8M8 17h6M8 9h2"/>
  </symbol>
  <!-- User icon -->
  <symbol id="icon-user" viewBox="0 0 24 24" fill="none" stroke="currentColor" stroke-width="1.5" stroke-linecap="round" stroke-linejoin="round">
    <circle cx="12" cy="8" r="4"/><path d="M20 21a8 8 0 10-16 0"/>
  </symbol>
  <!-- Admin/Settings icon -->
  <symbol id="icon-admin" viewBox="0 0 24 24" fill="none" stroke="currentColor" stroke-width="1.5" stroke-linecap="round" stroke-linejoin="round">
    <circle cx="12" cy="12" r="3"/><path d="M12 1v2M12 21v2M4.22 4.22l1.42 1.42M18.36 18.36l1.42 1.42M1 12h2M21 12h2M4.22 19.78l1.42-1.42M18.36 5.64l1.42-1.42"/>
  </symbol>
  <!-- Dashboard icon -->
  <symbol id="icon-dashboard" viewBox="0 0 24 24" fill="none" stroke="currentColor" stroke-width="1.5" stroke-linecap="round" stroke-linejoin="round">
    <rect x="3" y="3" width="7" height="7" rx="1"/><rect x="14" y="3" width="7" height="7" rx="1"/><rect x="14" y="14" width="7" height="7" rx="1"/><rect x="3" y="14" width="7" height="7" rx="1"/>
  </symbol>
  <!-- Robot/AI icon -->
  <symbol id="icon-robot" viewBox="0 0 24 24" fill="none" stroke="currentColor" stroke-width="1.5" stroke-linecap="round" stroke-linejoin="round">
    <rect x="3" y="8" width="18" height="12" rx="2"/><circle cx="9" cy="14" r="1.5"/><circle cx="15" cy="14" r="1.5"/><path d="M12 2v4M8 8V6M16 8V6"/>
  </symbol>
  <!-- Users icon -->
  <symbol id="icon-users" viewBox="0 0 24 24" fill="none" stroke="currentColor" stroke-width="1.5" stroke-linecap="round" stroke-linejoin="round">
    <circle cx="9" cy="7" r="3"/><path d="M15 21v-2a4 4 0 00-4-4H6a4 4 0 00-4 4v2"/><circle cx="18" cy="8" r="2.5"/><path d="M22 21v-1.5a3 3 0 00-2.5-2.96"/>
  </symbol>
  <!-- Article/News icon -->
  <symbol id="icon-article" viewBox="0 0 24 24" fill="none" stroke="currentColor" stroke-width="1.5" stroke-linecap="round" stroke-linejoin="round">
    <path d="M4 4h16a2 2 0 012 2v12a2 2 0 01-2 2H4a2 2 0 01-2-2V6a2 2 0 012-2z"/><path d="M7 8h10M7 12h6M7 16h8"/>
  </symbol>
  <!-- Home icon -->
  <symbol id="icon-home" viewBox="0 0 24 24" fill="none" stroke="currentColor" stroke-width="1.5" stroke-linecap="round" stroke-linejoin="round">
    <path d="M3 12l2-2m0 0l7-7 7 7M5 10v10a1 1 0 001 1h3m10-11l2 2m-2-2v10a1 1 0 01-1 1h-3m-4 0v-5a1 1 0 011-1h2a1 1 0 011 1v5m-4 0h4"/>
  </symbol>
  <!-- Arrow right icon -->
  <symbol id="icon-arrow-right" viewBox="0 0 24 24" fill="none" stroke="currentColor" stroke-width="2" stroke-linecap="round" stroke-linejoin="round">
    <path d="M5 12h14M12 5l7 7-7 7"/>
  </symbol>
  <!-- Logout icon -->
  <symbol id="icon-logout" viewBox="0 0 24 24" fill="none" stroke="currentColor" stroke-width="1.5" stroke-linecap="round" stroke-linejoin="round">
    <path d="M9 21H5a2 2 0 01-2-2V5a2 2 0 012-2h4M16 17l5-5-5-5M21 12H9"/>
  </symbol>
  <!-- Check circle icon -->
  <symbol id="icon-check" viewBox="0 0 24 24" fill="none" stroke="currentColor" stroke-width="1.5" stroke-linecap="round" stroke-linejoin="round">
    <circle cx="12" cy="12" r="10"/><path d="M9 12l2 2 4-4"/>
  </symbol>
  <!-- Star icon -->
  <symbol id="icon-star" viewBox="0 0 24 24" fill="none" stroke="currentColor" stroke-width="1.5" stroke-linecap="round" stroke-linejoin="round">
    <path d="M12 2l3.09 6.26L22 9.27l-5 4.87 1.18 6.88L12 17.77l-6.18 3.25L7 14.14 2 9.27l6.91-1.01L12 2z"/>
  </symbol>
</svg>
